# xmcd CD database file
#
# Track frame offsets:
#	160
#	18090
#	42117
#	61591
#	82013
#	98764
#	119193
#	136586
#	155639
#	171760
#	188985
#
# Disc length: 2988 seconds
#
# Revision: 6
# Processed by: cddbd v1.5.1PL2 Copyright (c) Steve Scherf et al.
# Submitted via: CDex 1.51
#
DISCID=870baa0b
DTITLE=Jazz -  
DYEAR=1998
DGENRE=Jazz
TTITLE0=MEL TORME   OH, LADY BE GOOD
TTITLE1=SCOTT HAMILTON  AUTUMN LEAVES
TTITLE2=THE CHARLIE BYRD QUINTET  BESAME MUCHO
TTITLE3=JOHN PATITUCCI  ON THE HUDSON
TTITLE4=THE CHARLIE BYRD TRIO  IT S A WONDERFUL WORLD
TTITLE5=DICK HYMAN  ROSE ROOM
TTITLE6=MONTY ALEXANDER  SWEET GEORGIA BROWN
TTITLE7=THE JOHN BASILE QUARTET  DESMOND BLUE
TTITLE8=JACQUES LOUSSIER  AIR ON A G STRING
TTITLE9=BOBBY SHORT  NEW YORK, NEW YORK
TTITLE10=OSCAR PETERSON  MACK THE KNIFE
EXTD=YEAR: 1998
EXTT0=
EXTT1=
EXTT2=
EXTT3=
EXTT4=
EXTT5=
EXTT6=
EXTT7=
EXTT8=
EXTT9=
EXTT10=
PLAYORDER=
